HIERARCHY
ROOT root
{
	OFFSET 0.000000 0.000000 0.000000
	CHANNELS 6 Xposition Yposition Zposition Zrotation Yrotation Xrotation
	JOINT lhip
	{
		OFFSET 0.058581 -0.082280 -0.017664
		CHANNELS 3 Zrotation Yrotation Xrotation
		JOINT lknee
		{
			OFFSET 0.043451 -0.386469 0.008037
			CHANNELS 3 Zrotation Yrotation Xrotation
			JOINT lankle
			{
				OFFSET -0.014790 -0.426874 -0.037428
				CHANNELS 3 Zrotation Yrotation Xrotation
				JOINT ltoe
				{
					OFFSET 0.041054 -0.060286 0.122042
					CHANNELS 3 Zrotation Yrotation Xrotation
					End Site
					{
						OFFSET 0.000000 0.000000 0.000000
					}
				}
			}
		}
	}
	JOINT rhip
	{
		OFFSET -0.060310 -0.090513 -0.013543
		CHANNELS 3 Zrotation Yrotation Xrotation
		JOINT rknee
		{
			OFFSET -0.043257 -0.383688 -0.004843
			CHANNELS 3 Zrotation Yrotation Xrotation
			JOINT rankle
			{
				OFFSET 0.019056 -0.420046 -0.034562
				CHANNELS 3 Zrotation Yrotation Xrotation
				JOINT rtoe
				{
					OFFSET -0.034840 -0.062106 0.130323
					CHANNELS 3 Zrotation Yrotation Xrotation
					End Site
					{
						OFFSET 0.000000 0.000000 0.000000
					}
				}
			}
		}
	}
	JOINT lowerback
	{
		OFFSET 0.004439 0.124404 -0.038385
		CHANNELS 3 Zrotation Yrotation Xrotation
		JOINT upperback
		{
			OFFSET 0.004488 0.137956 0.026820
			CHANNELS 3 Zrotation Yrotation Xrotation
			JOINT chest
			{
				OFFSET -0.002265 0.056032 0.002855
				CHANNELS 3 Zrotation Yrotation Xrotation
				JOINT lowerneck
				{
					OFFSET -0.013390 0.211636 -0.033468
					CHANNELS 3 Zrotation Yrotation Xrotation
					JOINT upperneck
					{
						OFFSET 0.010113 0.088937 0.050410
						CHANNELS 3 Zrotation Yrotation Xrotation
						End Site
						{
							OFFSET 0.000000 0.000000 0.000000
						}
					}
				}
				JOINT lclavicle
				{
					OFFSET 0.071702 0.114000 -0.018898
					CHANNELS 3 Zrotation Yrotation Xrotation
					JOINT lshoulder
					{
						OFFSET 0.122921 0.045205 -0.019046
						CHANNELS 3 Zrotation Yrotation Xrotation
						JOINT lelbow
						{
							OFFSET 0.255332 -0.015649 -0.022946
							CHANNELS 3 Zrotation Yrotation Xrotation
							JOINT lwrist
							{
								OFFSET 0.265709 0.012698 -0.007375
								CHANNELS 3 Zrotation Yrotation Xrotation
								End Site
								{
									OFFSET 0.000000 0.000000 0.000000
								}
							}
						}
					}
				}
				JOINT rclavicle
				{
					OFFSET -0.082954 0.112472 -0.023707
					CHANNELS 3 Zrotation Yrotation Xrotation
					JOINT rshoulder
					{
						OFFSET -0.113228 0.046853 -0.008472
						CHANNELS 3 Zrotation Yrotation Xrotation
						JOINT relbow
						{
							OFFSET -0.260127 -0.014369 -0.031269
							CHANNELS 3 Zrotation Yrotation Xrotation
							JOINT rwrist
							{
								OFFSET -0.269108 0.006794 -0.006027
								CHANNELS 3 Zrotation Yrotation Xrotation
								End Site
								{
									OFFSET 0.000000 0.000000 0.000000
								}
							}
						}
					}
				}
			}
		}
	}
}
MOTION
Frames: 13
Frame Time: 0.033333
-0.032878 0.208977 0.995787 90.268773 0.233852 78.706634 7.015942 6.490313 1.160483 -6.425307 -12.481372 20.306699 -5.880416 10.777364 -13.660754 0.000000 -0.000000 0.000000 -0.532081 -2.125278 -1.391339 0.831638 5.076160 22.802217 0.849107 -8.047658 -12.985414 0.000000 -0.000000 0.000000 -3.397083 1.009139 15.014001 -9.835410 -10.967515 25.324228 -0.315899 -0.983939 -8.076074 -7.210565 -4.868481 19.558278 23.767246 13.987422 -11.559726 -4.392544 -58.136625 -6.831007 -6.846202 -51.742111 -17.527421 31.650435 -34.179872 -50.210382 26.964765 11.923415 9.811970 -24.342220 39.861521 -15.917815 -7.587092 27.808378 -35.450051 9.779273 44.787971 -22.599504 24.688135 12.994735 -35.076499 
-0.033599 0.203883 0.995992 91.070514 0.308822 78.890473 7.379967 6.349575 0.850914 -6.454644 -12.846376 20.052396 -5.984367 10.707394 -13.388026 0.000000 -0.000000 0.000000 -0.117284 -2.266034 -1.550394 0.810105 4.745409 22.851144 0.608362 -8.399106 -13.147801 0.000000 -0.000000 0.000000 -3.865458 1.408880 15.307094 -10.309692 -10.409171 24.899821 -0.414993 -0.577202 -8.125684 -6.437704 -5.976088 19.759387 24.952548 13.565500 -11.268018 -5.129951 -57.890045 -6.474417 -7.757152 -51.682820 -16.487508 32.238158 -34.406575 -50.616616 27.290104 11.742465 9.947123 -24.542653 40.157125 -15.703273 -7.793274 27.458012 -35.521688 10.916213 44.826277 -21.596021 24.200524 13.244218 -34.917393 
-0.034057 0.199005 0.996039 92.000625 0.379947 78.990450 7.677103 6.108276 0.628723 -6.475448 -13.347765 19.778639 -6.074610 10.543745 -13.007771 0.000000 -0.000000 0.000000 0.212151 -2.537212 -1.607605 0.794998 4.369795 22.855973 0.424413 -8.758201 -13.117799 0.000000 -0.000000 0.000000 -4.278735 1.770541 15.493508 -10.712080 -10.069594 24.802489 -0.530929 -0.418950 -8.211815 -5.895107 -6.953258 19.809781 25.880724 12.932604 -10.972832 -6.227321 -57.879213 -5.939229 -7.693353 -50.541772 -15.801457 32.423017 -35.361051 -51.184079 27.716451 11.021928 9.641572 -24.672241 41.189707 -15.536148 -8.293409 27.036749 -35.966640 11.360830 44.496776 -21.365625 24.572506 13.277058 -34.156182 
-0.034286 0.194525 0.996037 92.927186 0.469996 79.094313 8.000123 5.942516 0.353270 -6.481664 -13.767921 19.610422 -6.129851 10.280856 -12.685659 0.000000 -0.000000 0.000000 0.585721 -2.647475 -1.622604 0.823352 3.912309 22.844768 0.044216 -9.211173 -13.322926 0.000000 -0.000000 0.000000 -4.752917 2.141492 15.512993 -11.046762 -9.554489 25.100184 -0.643379 -0.187683 -8.424608 -4.929200 -7.914709 19.561167 26.529101 11.850601 -10.611720 -6.507491 -57.418289 -6.226450 -8.504804 -50.429815 -14.761162 32.735453 -35.532969 -51.610961 27.385912 11.979493 9.860487 -24.821099 41.499257 -15.414439 -8.222078 27.163007 -35.648180 11.278965 44.778900 -21.964817 23.955437 13.196341 -34.681041 
-0.034342 0.190265 0.995914 93.981860 0.578036 79.251265 8.274398 5.591010 -0.011459 -6.511292 -14.184341 19.416665 -6.192646 10.053552 -12.423854 0.000000 -0.000000 0.000000 0.885721 -2.943315 -1.697457 0.817112 3.457524 22.807275 -0.010903 -9.560255 -13.277148 0.000000 -0.000000 0.000000 -5.138240 2.465580 15.606720 -11.335154 -9.245283 25.146751 -0.741841 0.018222 -8.535232 -4.330103 -8.944753 19.477827 27.212470 10.847224 -10.356664 -6.348480 -56.788326 -6.766057 -9.374950 -50.356387 -13.948867 32.812079 -35.521916 -51.403868 27.293556 11.953151 9.951073 -24.862492 41.875536 -15.229062 -8.273642 27.708980 -35.971106 10.756975 44.055424 -22.309924 24.442142 13.068842 -34.344199 
-0.034409 0.186327 0.995892 94.992793 0.659660 79.393767 8.519172 5.523365 -0.428484 -6.613136 -14.786934 19.348304 -6.288578 9.900531 -12.131143 0.000000 -0.000000 0.000000 1.155065 -3.300510 -1.776160 0.817953 3.111828 22.797002 -0.243076 -9.964616 -13.313261 0.000000 -0.000000 0.000000 -5.592669 2.842750 15.895881 -11.535789 -8.794072 25.062637 -0.746205 0.383001 -8.789599 -3.843724 -10.319753 19.197686 28.014420 9.993807 -9.848082 -6.508697 -56.220382 -6.838269 -10.001032 -50.627675 -13.437726 32.759677 -35.362206 -51.216257 26.711471 12.992802 9.368494 -24.793503 42.040542 -15.169319 -7.852808 28.041273 -35.877225 10.305186 43.866642 -22.624011 24.993020 12.422001 -33.975129 
-0.034281 0.182625 0.995656 95.944579 0.876279 79.484799 8.883810 5.190332 -0.731847 -6.699813 -15.284543 19.242121 -6.367781 9.642325 -11.878800 0.000000 -0.000000 0.000000 1.499557 -3.547080 -1.769535 0.875260 2.563143 22.742282 -0.526200 -10.089774 -13.439182 0.000000 -0.000000 0.000000 -5.934670 3.287099 15.940054 -11.582033 -8.319764 25.489006 -0.684710 0.558041 -8.937414 -2.683126 -11.075521 18.401830 28.161697 8.673486 -9.603421 -6.372042 -56.099654 -7.364385 -10.206480 -50.179101 -12.705859 32.869411 -35.651999 -51.559936 28.732208 11.492314 12.122627 -24.973963 42.679940 -15.286481 -8.191393 27.658428 -35.966641 10.684936 43.499784 -23.014553 24.501494 12.530756 -33.200685 
-0.034286 0.179509 0.995528 96.841694 1.043288 79.585409 9.139693 4.807805 -1.165292 -6.767209 -15.575224 19.370552 -6.418741 9.487714 -11.724057 0.000000 -0.000000 0.000000 1.803280 -3.783881 -1.811304 0.848718 2.064501 22.726669 -0.634427 -10.407486 -13.390078 0.000000 -0.000000 0.000000 -6.231681 3.725069 15.975874 -11.601573 -7.859995 25.936132 -0.635427 0.790139 -9.086286 -1.848503 -11.999091 17.689476 28.443591 7.474972 -9.406512 -6.045446 -55.744292 -8.084354 -10.527074 -49.823241 -11.817213 32.895671 -35.839005 -51.938387 28.749580 11.339733 12.150842 -25.099942 43.107513 -15.672516 -8.229286 27.698402 -35.695609 10.367387 43.192991 -23.597977 24.651012 12.513454 -32.692241 
-0.033785 0.176473 0.995098 97.654470 1.288278 79.625475 9.520935 4.571382 -1.471360 -6.867760 -16.000570 19.473015 -6.369502 9.339610 -11.638659 0.000000 -0.000000 0.000000 2.195817 -4.012800 -1.743336 0.948658 1.804774 22.626115 -0.788976 -10.837204 -13.533986 0.000000 -0.000000 0.000000 -6.507921 4.226479 16.141584 -11.489053 -7.442049 26.153685 -0.522979 0.990644 -9.188343 -1.250605 -12.652696 17.162952 28.890772 6.437576 -9.422891 -5.748975 -55.225203 -8.663740 -10.401473 -49.545884 -11.419295 32.294905 -36.245612 -52.099300 28.354689 12.217633 11.455083 -24.970099 43.375652 -15.653087 -8.229675 27.836882 -35.500024 10.122047 43.244635 -24.109613 23.956617 11.892748 -32.692697 
-0.033737 0.173758 0.994614 98.390058 1.471441 79.693513 9.810883 4.197220 -1.861770 -6.957583 -16.148603 19.661694 -6.324306 9.197394 -11.482693 0.000000 -0.000000 0.000000 2.453421 -4.237899 -1.774378 1.001294 1.406203 22.622298 -0.808662 -11.032492 -13.549869 0.000000 -0.000000 0.000000 -6.795973 4.635136 16.592678 -11.411034 -7.110579 26.083240 -0.423336 1.289997 -9.444757 -0.585405 -13.351855 16.635019 29.277771 5.277548 -9.190944 -4.956365 -54.446388 -9.460890 -10.660444 -49.446435 -10.909955 31.763321 -36.464710 -51.574958 27.712237 12.640632 10.947790 -24.735064 43.549791 -15.460920 -8.407375 28.170537 -35.859817 9.877003 42.816514 -24.912977 24.280408 11.845689 -32.198581 
-0.033255 0.171185 0.994337 99.117198 1.752510 79.667682 10.170715 3.960943 -2.225419 -7.024299 -16.471289 20.064752 -6.504334 9.117190 -11.558095 0.000000 -0.000000 0.000000 2.848294 -4.405322 -1.616559 1.042641 1.035755 22.547200 -0.925114 -11.305782 -13.646010 0.000000 -0.000000 0.000000 -7.106342 5.201014 16.863938 -11.108051 -6.747650 26.512261 -0.157769 1.445442 -9.812220 0.152839 -13.704609 16.115304 29.440462 4.145512 -9.543288 -4.077935 -54.208843 -10.187621 -9.971400 -48.467031 -10.648126 30.948419 -37.186317 -51.483268 27.102529 12.901707 10.508768 -24.714564 44.255395 -15.546693 -8.505880 27.947532 -35.773512 9.409721 42.699975 -25.846390 23.616837 11.681229 -32.719475 
-0.033320 0.169527 0.993669 99.796637 1.975873 79.647322 10.425245 3.573142 -2.638331 -7.137066 -16.671980 20.471618 -6.545781 9.060205 -11.591806 0.000000 -0.000000 0.000000 3.079220 -4.493961 -1.578642 1.209253 0.705524 22.558961 -0.720899 -11.667114 -13.705641 0.000000 -0.000000 0.000000 -7.427549 5.768310 17.049798 -10.744109 -6.376100 27.097555 0.118798 1.848918 -10.053582 0.608021 -14.050498 15.493264 29.725340 3.073005 -9.982784 -3.208289 -53.849735 -11.059341 -9.489129 -48.398199 -10.518762 30.181294 -37.002248 -51.182171 26.543787 13.119106 9.276143 -24.111020 44.699318 -15.200846 -9.274602 27.605663 -35.998905 9.326522 42.632874 -26.362698 22.889720 11.333135 -32.596133 
-0.033109 0.168033 0.993004 100.331080 2.167940 79.637927 10.649391 3.340153 -2.939885 -7.255607 -16.914370 20.823920 -6.461500 8.863791 -11.590511 0.000000 -0.000000 0.000000 3.279079 -4.651453 -1.550180 1.262818 0.371834 22.596785 -0.718078 -11.809296 -13.729089 0.000000 -0.000000 0.000000 -7.681858 6.340427 17.301729 -10.379279 -5.981184 27.651592 0.367551 1.926280 -10.451326 1.331020 -14.178352 14.969935 29.805307 2.033790 -10.364104 -2.107761 -53.455889 -11.903835 -8.808662 -47.569012 -10.180055 29.531224 -37.541040 -51.104327 26.538413 12.950513 8.940606 -23.973473 45.154353 -15.341186 -9.466057 27.688972 -36.010857 8.962169 42.340077 -27.196676 21.841588 11.015560 -32.417110 
